<svg height="512pt" viewBox="0 0 512 512" width="512pt" xmlns="http://www.w3.org/2000/svg"><path d="m91 270-35.625 30-55.375-30 61-90 30 30zm0 0" fill="#47568c"/><path d="m421 270 35.625 30 55.375-30-61-90-30 30zm0 0" fill="#2c3b73"/><path d="m391 0v165h-270v-135h126.898438l8.101562-12 12-18zm0 0" fill="#ffda2d"/><path d="m391 0v165h-135v-147l12-18zm0 0" fill="#fdbf00"/><path d="m421 60v165h-330v-135h186.898438l20.101562-30zm0 0" fill="#fdbf00"/><path d="m421 60v165h-165v-135h21.898438l20.101562-30zm0 0" fill="#ff9100"/><path d="m451 120v225h-390v-195h246.898438l20.101562-30zm0 0" fill="#ffda2d"/><path d="m451 120v225h-195v-195h51.898438l20.101562-30zm0 0" fill="#fdbf00"/><path d="m512 270v242h-512v-242h196.902344l9.898437 30h98.398438l9.898437-30zm0 0" fill="#61729b"/><path d="m512 270v242h-256v-212h49.199219l9.898437-30zm0 0" fill="#47568c"/><path d="m181 360h150v30h-150zm0 0" fill="#ffda2d"/><path d="m256 360h75v30h-75zm0 0" fill="#fdbf00"/></svg>