<svg id="Capa_1" enable-background="new 0 0 512 512" height="512" viewBox="0 0 512 512" width="512" xmlns="http://www.w3.org/2000/svg"><g><path d="m490.398 499.055c-25.029 20.237-61.627 16.308-81.816-8.719-267.396-331.451-128.612-159.421-231.409-286.851 1.73-.25 3.35-.97 4.75-2.09l81.766-65.801c1.48-1.19 2.56-2.74 3.17-4.499 30.302 37.358 206.964 255.095 232.129 286.111 20.279 24.987 16.429 61.622-8.59 81.849z" fill="#ffd333"/><path d="m491.108 498.465c-9.254-11.471-253.014-313.635-267.027-330.995l39.608-31.876c1.48-1.19 2.56-2.74 3.17-4.499 0 0 159.493 196.602 232.129 286.111 20.089 24.747 16.499 60.922-7.88 81.259z" fill="#fea822"/><path d="m322.536 199.726-90.026 72.36-18.839-23.357 89.966-72.29z" fill="#fea822"/><path d="m322.536 199.726-43.938 35.315-18.839-23.347 43.878-35.255c6.218 7.653 2.354 2.892 18.899 23.287z" fill="#fd7c28"/><path d="m366.298 33.407c-78.172-45.903-151.412-44.477-211.802 4.126l-63.726 51.289c-6.473 5.209-7.476 14.7-2.232 21.146 5.128 6.306 4.307 15.647-2.281 20.949-6.453 5.194-15.937 4.189-21.14-2.242-5.2-6.426-14.618-7.434-21.059-2.257l-27.292 21.936c-19.372 15.59-22.413 43.867-6.737 63.204l37.74 46.549c15.605 19.248 43.997 22.237 63.279 6.719l27.284-21.931c6.47-5.201 7.485-14.681 2.254-21.134-5.202-6.416-4.188-15.771 2.243-20.947 6.461-5.199 15.957-4.197 21.173 2.235 5.204 6.419 14.618 7.418 21.057 2.239l81.76-65.803c6.466-5.203 7.474-14.68 2.247-21.128l-18.665-23.022c34.142-25.443 57.552-32.168 108.839-34.007 6.665-.239 12.371-4.848 14.005-11.313 1.633-6.464-1.197-13.231-6.947-16.608z" fill="#3e5159"/><path d="m373.244 50.016c-1.63 6.459-7.34 11.069-13.999 11.309-51.288 1.84-74.706 8.569-108.845 34.015l18.669 23.017c5.27 6.505 4.165 15.987-2.25 21.127l-39.598 31.876c-5.115-6.337-90.479-112.142-94.095-116.624l21.369-17.198c60.387-48.603 133.634-50.033 211.8-4.129 5.749 3.379 8.579 10.138 6.949 16.607z" fill="#293439"/></g></svg>